<svg xmlns="http://www.w3.org/2000/svg" xmlns:xlink="http://www.w3.org/1999/xlink" version="1.1" x="0px" y="0px" viewBox="0 0 100 125" enable-background="new 0 0 100 100" xml:space="preserve"><path fill="#000000" d="M47.924,80.328h5.932c8.831,0,16.015-7.185,16.015-16.015c0-7.344-4.975-13.533-11.726-15.414  c4.211-2.889,6.981-7.731,6.981-13.212c0-8.831-7.184-16.015-16.015-16.015H30.13v3.559h6.524v53.382H30.13v3.559h17.794V80.328z   M49.11,23.231c6.869,0,12.456,5.588,12.456,12.456c0,6.868-5.587,12.456-12.456,12.456v0.155h-8.897V23.231H49.11z M40.213,76.613  V51.857h13.642c6.869,0,12.456,5.588,12.456,12.456c0,6.868-5.587,12.456-12.456,12.456h-5.932v-0.155H40.213z"/><text x="0" y="115" fill="#000000" font-size="5px" font-weight="bold" font-family="'Helvetica Neue', Helvetica, Arial-Unicode, Arial, Sans-serif">Created by Ema Dimitrova</text><text x="0" y="120" fill="#000000" font-size="5px" font-weight="bold" font-family="'Helvetica Neue', Helvetica, Arial-Unicode, Arial, Sans-serif">from the Noun Project</text></svg>