<svg xmlns="http://www.w3.org/2000/svg" xmlns:xlink="http://www.w3.org/1999/xlink" version="1.1" x="0px" y="0px" viewBox="0 0 24 30" style="enable-background:new 0 0 24 24;" xml:space="preserve"><g><g><path d="M8.5,11.5h-8C0.224,11.5,0,11.724,0,12s0.224,0.5,0.5,0.5H4v7H3.5C3.224,19.5,3,19.724,3,20s0.224,0.5,0.5,0.5h2    C5.776,20.5,6,20.276,6,20s-0.224-0.5-0.5-0.5H5v-7h3.5C8.776,12.5,9,12.276,9,12S8.776,11.5,8.5,11.5z"/><path d="M23.5,3.5h-16C7.224,3.5,7,3.724,7,4s0.224,0.5,0.5,0.5H15v15h-1.5c-0.276,0-0.5,0.224-0.5,0.5s0.224,0.5,0.5,0.5h4    c0.276,0,0.5-0.224,0.5-0.5s-0.224-0.5-0.5-0.5H16v-15h7.5C23.776,4.5,24,4.276,24,4S23.776,3.5,23.5,3.5z"/></g></g><text x="0" y="39" fill="#000000" font-size="5px" font-weight="bold" font-family="'Helvetica Neue', Helvetica, Arial-Unicode, Arial, Sans-serif">Created by icon 54</text><text x="0" y="44" fill="#000000" font-size="5px" font-weight="bold" font-family="'Helvetica Neue', Helvetica, Arial-Unicode, Arial, Sans-serif">from the Noun Project</text></svg>