<svg xmlns="http://www.w3.org/2000/svg" xmlns:xlink="http://www.w3.org/1999/xlink" version="1.1" x="0px" y="0px" viewBox="0 0 100 125" enable-background="new 0 0 100 100" xml:space="preserve"><g><path fill="#000000" d="M80,5H20c-2.26,0-4.091,1.831-4.091,4.091v9.545c0,2.259,1.831,4.091,4.091,4.091   c2.259,0,4.091-1.832,4.091-4.091v-5.455h21.818v73.636h-4.875c-2.26,0-4.091,1.831-4.091,4.091c0,2.259,1.831,4.091,4.091,4.091   h17.932c2.259,0,4.091-1.832,4.091-4.091c0-2.26-1.832-4.091-4.091-4.091h-4.875V13.182h21.818v5.455   c0,2.259,1.831,4.091,4.091,4.091c2.259,0,4.091-1.832,4.091-4.091V9.091C84.091,6.831,82.259,5,80,5z"/></g><text x="0" y="115" fill="#000000" font-size="5px" font-weight="bold" font-family="'Helvetica Neue', Helvetica, Arial-Unicode, Arial, Sans-serif">Created by Viktor Ostrovsky</text><text x="0" y="120" fill="#000000" font-size="5px" font-weight="bold" font-family="'Helvetica Neue', Helvetica, Arial-Unicode, Arial, Sans-serif">from the Noun Project</text></svg>