<svg xmlns="http://www.w3.org/2000/svg" xmlns:xlink="http://www.w3.org/1999/xlink" version="1.1" x="0px" y="0px" viewBox="0 0 100 125" enable-background="new 0 0 100 100" xml:space="preserve"><path d="M50,11.026c-21.525,0-38.974,17.449-38.974,38.974c0,12.283,5.688,23.232,14.567,30.376l-14.567,8.599H50  c21.525,0,38.975-17.449,38.975-38.975C88.975,28.475,71.523,11.026,50,11.026z M49.999,85.507H23.961l8.242-4.786  C21.617,74.574,14.493,63.123,14.493,50c0-19.61,15.896-35.506,35.506-35.506c19.61,0,35.507,15.896,35.507,35.506  C85.506,69.609,69.609,85.507,49.999,85.507z M66.092,37.79H33.909c-1.104,0-2-0.896-2-2s0.896-2,2-2h32.183c1.105,0,2,0.896,2,2  S67.197,37.79,66.092,37.79z M66.092,47.264H33.909c-1.104,0-2-0.896-2-2s0.896-2,2-2h32.183c1.105,0,2,0.896,2,2  S67.197,47.264,66.092,47.264z M66.092,56.737H33.909c-1.104,0-2-0.896-2-2s0.896-2,2-2h32.183c1.105,0,2,0.896,2,2  S67.197,56.737,66.092,56.737z M50.171,66.211H33.909c-1.104,0-2-0.896-2-2s0.896-2,2-2h16.263c1.104,0,2,0.896,2,2  S51.275,66.211,50.171,66.211z"/><text x="0" y="115" fill="#000000" font-size="5px" font-weight="bold" font-family="'Helvetica Neue', Helvetica, Arial-Unicode, Arial, Sans-serif">Created by Christopher Holm-Hansen</text><text x="0" y="120" fill="#000000" font-size="5px" font-weight="bold" font-family="'Helvetica Neue', Helvetica, Arial-Unicode, Arial, Sans-serif">from the Noun Project</text></svg>