<svg xmlns="http://www.w3.org/2000/svg" xmlns:xlink="http://www.w3.org/1999/xlink" version="1.1" x="0px" y="0px" viewBox="0 0 64 80" enable-background="new 0 0 64 64" xml:space="preserve"><g><path d="M51,24H13c-0.552,0-1,0.448-1,1s0.448,1,1,1h38c0.552,0,1-0.448,1-1S51.552,24,51,24z"/><path d="M51,12H13c-0.552,0-1,0.448-1,1s0.448,1,1,1h38c0.552,0,1-0.448,1-1S51.552,12,51,12z"/><path d="M51,37H13c-0.552,0-1,0.448-1,1s0.448,1,1,1h38c0.552,0,1-0.448,1-1S51.552,37,51,37z"/><path d="M51,50H13c-0.552,0-1,0.448-1,1s0.448,1,1,1h38c0.552,0,1-0.448,1-1S51.552,50,51,50z"/></g><text x="0" y="79" fill="#000000" font-size="5px" font-weight="bold" font-family="'Helvetica Neue', Helvetica, Arial-Unicode, Arial, Sans-serif">Created by Mask Icon</text><text x="0" y="84" fill="#000000" font-size="5px" font-weight="bold" font-family="'Helvetica Neue', Helvetica, Arial-Unicode, Arial, Sans-serif">from the Noun Project</text></svg>